# xmcd
#
# Track frame offsets:
# 150
# 15555
# 30267
# 46050
# 55340
# 72640
# 82405
# 96925
# 108730
# 126875
#
# Disc length: 1805 seconds
#
#
# Revision: 0
# Processed by: cddbd v1.4PL0 Copyright (c) Steve Scherf et al.
# Submitted via: FreeRIP 2.00 
#
DISCID=88070b0a
DTITLE=Mistletoe Music - Christmas In The Country
DYEAR=1994
DGENRE=Christmas
TTITLE0=Grandma Got Run Over By A Reindeer
TTITLE1=Rudolf the Red-Nosed Reindeer
TTITLE2=What Child is This?
TTITLE3=Up On the House Top
TTITLE4=O Holy Night
TTITLE5=Jingle Bell Rock
TTITLE6=Hark the Herald Angels Sing
TTITLE7=Silent Night
TTITLE8=It Came Upon A Midnight Clear
TTITLE9=We Wish You A Merry Christmas
EXTD=
EXTT0=
EXTT1=
EXTT2=
EXTT3=
EXTT4=
EXTT5=
EXTT6=
EXTT7=
EXTT8=
EXTT9=
PLAYORDER=
